# xmcd CD database file
#
# Track frame offsets:
#	150
#	35927
#	74271
#	98381
#	125804
#	176031
#	227094
#	272201
#	320455
#
# Disc length: 4362 seconds
#
# Revision: 0
# Processed by: cddbd v1.5.2PL0 Copyright (c) Steve Scherf et al.
# Submitted via: CDex 1.70beta2
#
DISCID=82110809
DTITLE=Dave Stryker - Blue to the Bone III
DYEAR=2002
DGENRE=Jazz
TTITLE0=Stan's Shuffle
TTITLE1=Complicity
TTITLE2=Crazy House
TTITLE3=If 6 Was 9
TTITLE4=For Jack and T
TTITLE5=Going Home
TTITLE6=So Long Eric
TTITLE7=Soulful Mr. Timmons
TTITLE8=Doin' the Bone
EXTD=YEAR: 2002
EXTT0=
EXTT1=
EXTT2=
EXTT3=
EXTT4=
EXTT5=
EXTT6=
EXTT7=
EXTT8=
PLAYORDER=
